<svg xmlns="http://www.w3.org/2000/svg" viewBox="0 0 512 512">
  <style>
    @media (prefers-color-scheme: light) {
      .a {
        fill: #000;
      }
    }
  </style>
  <path
    fill="#fff"
    class="a"
    d="M224.546 89q11.802 0 23.255 1.668-21.343 2.955-40.629 11.146-30.171 12.813-52.937 35.658t-35.5 53.094T106 255.843t12.735 65.434 35.5 53.247 52.937 35.659q19.286 8.193 40.629 11.149A161 161 0 0 1 224.546 423q-35.202 0-65.374-12.817t-52.937-35.659-35.5-53.247T58 255.843t12.735-65.277 35.5-53.094 52.937-35.658T224.546 89"
  />
  <path
    fill="#fff"
    class="a"
    d="M320.546 423q-35.203 0-65.374-12.817t-52.937-35.659q-22.765-22.84-35.5-53.247Q154 290.871 154 255.843t12.735-65.277 35.5-53.094 52.937-35.658T320.546 89q28.02 0 54.067 9.404t46.833 27.18T454 168.56l-56.86 31.961q-12.023-20.912-31.063-33.2-19.04-12.287-48.433-12.287-20.1 0-36.86 7.59-16.763 7.592-29.17 21.118-12.405 13.527-19.193 31.966-6.786 18.438-6.786 40.134 0 21.853 6.708 40.37t18.955 32.044q12.246 13.525 29.246 21.117 17 7.591 37.1 7.591 29.393 0 48.757-12.451 19.365-12.453 30.739-32.887L454 343.588q-11.769 24.882-32.554 42.743-20.786 17.86-46.833 27.265T320.546 423"
  />
</svg>
